<svg width="24" height="24" fill="none" xmlns="http://www.w3.org/2000/svg"><path fill-rule="evenodd" clip-rule="evenodd" d="M19.846 5.594a1.44 1.44 0 11-2.88 0 1.44 1.44 0 012.88 0zM12 16a4 4 0 110-8 4 4 0 010 8zm0-10.162a6.162 6.162 0 100 12.325 6.162 6.162 0 000-12.325zm0-3.676l4.849.07c1.17.054 1.805.249 2.228.413.56.218.96.478 1.38.898.42.42.68.82.898 1.38.164.423.36 1.058.413 2.228.058 1.266.07 1.645.07 4.85l-.07 4.848c-.053 1.17-.249 1.806-.413 2.229-.218.56-.478.96-.898 1.38-.42.42-.82.68-1.38.897-.423.165-1.058.36-2.228.414-1.265.057-1.645.07-4.849.07s-3.584-.013-4.85-.07c-1.17-.054-1.805-.25-2.227-.414a3.717 3.717 0 01-1.38-.897c-.42-.42-.68-.82-.898-1.38-.164-.423-.36-1.059-.413-2.229-.058-1.265-.07-1.645-.07-4.848l.07-4.85c.053-1.17.248-1.805.413-2.228.217-.56.478-.96.898-1.38.42-.42.819-.68 1.38-.898.422-.164 1.058-.36 2.228-.413 1.265-.058 1.645-.07 4.849-.07zM12 0C8.741 0 8.332.014 7.052.072 5.775.131 4.902.333 4.14.63a5.879 5.879 0 00-2.126 1.384A5.882 5.882 0 00.63 4.14c-.297.763-.5 1.635-.558 2.912C.014 8.332 0 8.742 0 12l.072 4.948c.058 1.277.261 2.15.558 2.912a5.88 5.88 0 001.384 2.126A5.884 5.884 0 004.14 23.37c.763.297 1.635.5 2.912.558 1.28.058 1.69.072 4.948.072 3.259 0 3.668-.014 4.948-.072 1.277-.058 2.15-.261 2.912-.558a5.882 5.882 0 002.126-1.384 5.883 5.883 0 001.384-2.126c.297-.763.5-1.635.558-2.912.058-1.28.072-1.69.072-4.948l-.072-4.948c-.058-1.277-.261-2.15-.558-2.912a5.882 5.882 0 00-1.384-2.126A5.882 5.882 0 0019.86.63c-.763-.297-1.635-.5-2.912-.558C15.668.014 15.258 0 12 0z" fill="url(#paint0_radial_3_318)"/><defs><radialGradient id="paint0_radial_3_318" cx="0" cy="0" r="1" gradientUnits="userSpaceOnUse" gradientTransform="translate(3.583 24.083) scale(30.666)"><stop stop-color="#FFB140"/><stop offset=".256" stop-color="#FF5445"/><stop offset=".599" stop-color="#FC2B82"/><stop offset="1" stop-color="#8E40B7"/></radialGradient></defs></svg>