<svg width="24" height="24" fill="none" xmlns="http://www.w3.org/2000/svg"><path fill-rule="evenodd" clip-rule="evenodd" d="M.606 8.087h4.677V22.91H.606V8.087zm2.22-1.853h-.034C1.098 6.234 0 5.1 0 3.664 0 2.2 1.13 1.091 2.857 1.091c1.726 0 2.787 1.106 2.821 2.57 0 1.435-1.095 2.573-2.853 2.573zM24 22.909h-5.306v-7.67c0-2.008-.83-3.378-2.654-3.378-1.396 0-2.172.925-2.534 1.816-.135.32-.112.766-.112 1.211v8.02H8.139V8.088h5.255v2.326c.31-1.017 1.99-2.468 4.67-2.468 3.324 0 5.936 2.131 5.936 6.722v8.242z" fill="#1d93d2"/></svg>