<svg width="24" height="24" fill="none" xmlns="http://www.w3.org/2000/svg"><path fill-rule="evenodd" clip-rule="evenodd" d="M19.123 9.806l-5.383-7.83-1.687 1.14 5.384 7.828 1.686-1.14v.002zm-2.018 1.418l-8.23-4.816-1.038 1.743 8.231 4.813 1.037-1.742v.002zM15.9 13.538l-9.227-2.461-.53 1.954 9.228 2.46.53-1.954v.001zm-.627 2.64l-9.515-.87-.187 2.016 9.515.868.187-2.015zM21.5 9.333L19.866 0l-2.012.346 1.635 9.336 2.011-.346v-.002zm-6.457 11.462l-9.556.005v-2.024l9.555-.005.001 2.024z" fill="#FF810F"/><path fill-rule="evenodd" clip-rule="evenodd" d="M16.666 14.14v8.273H4.132v-8.274H2.5V24h15.79v-9.86h-1.624z" fill="#BEBCBC"/></svg>