<svg width="24" height="24" fill="none" xmlns="http://www.w3.org/2000/svg"><g clip-path="url(#clip0_3_334)"><path fill-rule="evenodd" clip-rule="evenodd" d="M24 4.368a9.615 9.615 0 01-2.827.794 5.038 5.038 0 002.165-2.792 9.697 9.697 0 01-3.129 1.224A4.857 4.857 0 0016.616 2c-2.718 0-4.922 2.26-4.922 5.049 0 .396.042.78.126 1.15-4.092-.211-7.72-2.22-10.15-5.277a5.143 5.143 0 00-.667 2.54c0 1.752.87 3.297 2.19 4.203a4.83 4.83 0 01-2.23-.63v.062c0 2.447 1.697 4.488 3.951 4.95a4.692 4.692 0 01-1.297.178c-.312 0-.622-.03-.927-.09.626 2.006 2.444 3.466 4.599 3.505a9.722 9.722 0 01-7.29 2.093 13.71 13.71 0 007.548 2.266c9.058 0 14.01-7.692 14.01-14.364 0-.218-.005-.437-.014-.655.963-.712 1.798-1.6 2.456-2.613" fill="#00AAEC"/></g><defs><clipPath id="clip0_3_334"><path fill="#fff" d="M0 0h24v24H0z"/></clipPath></defs></svg>